<svg width="260" height="720" viewBox="0 0 260 720" xmlns="http://www.w3.org/2000/svg">
  <defs>
    <style>
      .title { font-family: "Microsoft YaHei", Arial, sans-serif; font-size: 16px; fill: #25624f; font-weight: bold; }
      .step { fill: #e9f7f7; stroke: #1a7a7a; stroke-width: 1.5; rx: 6; ry: 6; }
      .step-text { font-family: "Microsoft YaHei", Arial, sans-serif; font-size: 13px; fill: #1f1f1f; text-anchor: middle; }
      .sub { font-family: "Microsoft YaHei", Arial, sans-serif; font-size: 11px; fill: #555555; text-anchor: middle; }
      .border { fill: #ffffff; stroke: #c9e0df; stroke-width: 1; }
      .arrow { stroke: #1a7a7a; stroke-width: 2; fill: none; }
      .arrow-head { fill: #1a7a7a; }
    </style>
  </defs>

  <!-- 外框 -->
  <rect x="0.5" y="0.5" width="259" height="719" class="border" />

  <!-- 标题 -->
  <text x="130" y="40" class="title">安全环保管理流程</text>
  <text x="130" y="62" class="sub">从制度指标到统计评估闭环</text>

  <!-- 步骤框（自下而上） -->
  <!-- 1 目标指标与制度管理 -->
  <rect x="30" y="620" width="200" height="50" class="step" />
  <text x="130" y="643" class="step-text">安全环保目标与制度管理</text>

  <!-- 2 作业票与风险评估 -->
  <rect x="30" y="520" width="200" height="50" class="step" />
  <text x="130" y="543" class="step-text">作业票办理与风险评估</text>

  <!-- 3 在线监测与报警 -->
  <rect x="30" y="420" width="200" height="50" class="step" />
  <text x="130" y="443" class="step-text">粉尘/噪声/排放在线监测</text>

  <!-- 4 隐患排查与整改闭环 -->
  <rect x="30" y="320" width="200" height="50" class="step" />
  <text x="130" y="343" class="step-text">隐患排查、整改与闭环</text>

  <!-- 5 事件报警与应急处置 -->
  <rect x="30" y="220" width="200" height="50" class="step" />
  <text x="130" y="243" class="step-text">事故/事件报警与应急处置</text>

  <!-- 6 安全环保统计与评估提升 -->
  <rect x="30" y="120" width="200" height="50" class="step" />
  <text x="130" y="143" class="step-text">安全环保统计与评估提升</text>

  <!-- 箭头（自下向上） -->
  <line x1="130" y1="620" x2="130" y2="580" class="arrow" />
  <polygon points="130,570 125,580 135,580" class="arrow-head" />

  <line x1="130" y1="520" x2="130" y2="480" class="arrow" />
  <polygon points="130,470 125,480 135,480" class="arrow-head" />

  <line x1="130" y1="420" x2="130" y2="380" class="arrow" />
  <polygon points="130,370 125,380 135,380" class="arrow-head" />

  <line x1="130" y1="320" x2="130" y2="280" class="arrow" />
  <polygon points="130,270 125,280 135,280" class="arrow-head" />

  <line x1="130" y1="220" x2="130" y2="180" class="arrow" />
  <polygon points="130,170 125,180 135,180" class="arrow-head" />
</svg>
