<?xml version="1.0" encoding="UTF-8"?>
<svg width="1300" height="780" viewBox="0 0 1300 780" xmlns="http://www.w3.org/2000/svg">
  <style>
    .left-label { font: bold 16px 'Microsoft YaHei', sans-serif; fill: #ffffff; }
    .layer-label { font: bold 13px 'Microsoft YaHei', sans-serif; fill: #333333; }
    .module-box { font: 11px 'Microsoft YaHei', sans-serif; fill: #333333; text-anchor: middle; }
    .box-rect { rx: 3; ry: 3; stroke: #0891B2; stroke-width: 1.2; }
  </style>

  <!-- 背景 -->
  <rect width="100%" height="100%" fill="#E5E7EB"/>

  <!-- ====== 业务应用层 ====== -->
  <rect x="15" y="15" width="130" height="170" fill="#0891B2"/>
  <text x="35" y="105" class="left-label">业务应用层</text>
  
  <rect x="150" y="15" width="1135" height="170" fill="#F3F4F6"/>
  
  <!-- 地质管理 -->
  <text x="165" y="35" class="layer-label">地质管理</text>
  <rect x="165" y="40" width="98" height="28" fill="#ffffff" class="box-rect"/>
  <text x="214" y="58" class="module-box">钻孔数据库管理</text>
  <rect x="268" y="40" width="98" height="28" fill="#ffffff" class="box-rect"/>
  <text x="317" y="58" class="module-box">地质编录与成图</text>
  <rect x="371" y="40" width="98" height="28" fill="#ffffff" class="box-rect"/>
  <text x="420" y="58" class="module-box">质量管理分析</text>
  <rect x="474" y="40" width="98" height="28" fill="#ffffff" class="box-rect"/>
  <text x="523" y="58" class="module-box">地质成果管理</text>
  <rect x="577" y="40" width="98" height="28" fill="#ffffff" class="box-rect"/>
  <text x="626" y="58" class="module-box">三维资源模型</text>

  <!-- 采矿管理 -->
  <text x="165" y="85" class="layer-label">采矿管理</text>
  <rect x="165" y="90" width="98" height="28" fill="#ffffff" class="box-rect"/>
  <text x="214" y="108" class="module-box">生产规划编制</text>
  <rect x="268" y="90" width="98" height="28" fill="#ffffff" class="box-rect"/>
  <text x="317" y="108" class="module-box">爆破设计</text>
  <rect x="371" y="90" width="98" height="28" fill="#ffffff" class="box-rect"/>
  <text x="420" y="108" class="module-box">测量应用</text>
  <rect x="474" y="90" width="98" height="28" fill="#ffffff" class="box-rect"/>
  <text x="523" y="108" class="module-box">露天开采设计</text>
  <rect x="577" y="90" width="98" height="28" fill="#ffffff" class="box-rect"/>
  <text x="626" y="108" class="module-box">地下开采设计</text>

  <!-- 选矿生产安环 -->
  <text x="165" y="135" class="layer-label">选矿生产安环管理</text>
  <rect x="165" y="140" width="85" height="28" fill="#ffffff" class="box-rect"/>
  <text x="207.5" y="158" class="module-box">选矿生产</text>
  <rect x="255" y="140" width="85" height="28" fill="#ffffff" class="box-rect"/>
  <text x="297.5" y="158" class="module-box">质检化验</text>
  <rect x="345" y="140" width="85" height="28" fill="#ffffff" class="box-rect"/>
  <text x="387.5" y="158" class="module-box">设备维护</text>
  <rect x="435" y="140" width="85" height="28" fill="#ffffff" class="box-rect"/>
  <text x="477.5" y="158" class="module-box">安全环保</text>
  <rect x="525" y="140" width="85" height="28" fill="#ffffff" class="box-rect"/>
  <text x="567.5" y="158" class="module-box">决策分析</text>
  <rect x="615" y="140" width="85" height="28" fill="#ffffff" class="box-rect"/>
  <text x="657.5" y="158" class="module-box">移动端</text>

  <!-- 集团管控 -->
  <text x="730" y="35" class="layer-label">集团管控</text>
  <rect x="730" y="40" width="90" height="28" fill="#ffffff" class="box-rect"/>
  <text x="775" y="58" class="module-box">集团看板</text>
  <rect x="825" y="40" width="90" height="28" fill="#ffffff" class="box-rect"/>
  <text x="870" y="58" class="module-box">ERP/OA集成</text>

  <!-- ====== 工业互联网平台层 ====== -->
  <rect x="15" y="200" width="130" height="190" fill="#10B981"/>
  <text x="25" y="285" class="left-label">工业互联网</text>
  <text x="40" y="305" class="left-label">平台层</text>
  
  <rect x="150" y="200" width="1135" height="190" fill="#F3F4F6"/>

  <!-- 数据中台 -->
  <text x="165" y="220" class="layer-label">数据中台</text>
  <rect x="165" y="225" width="78" height="26" fill="#ffffff" class="box-rect"/>
  <text x="204" y="241" class="module-box">数据接入</text>
  <rect x="248" y="225" width="78" height="26" fill="#ffffff" class="box-rect"/>
  <text x="287" y="241" class="module-box">数据标准</text>
  <rect x="331" y="225" width="78" height="26" fill="#ffffff" class="box-rect"/>
  <text x="370" y="241" class="module-box">数据建模</text>
  <rect x="414" y="225" width="78" height="26" fill="#ffffff" class="box-rect"/>
  <text x="453" y="241" class="module-box">数据市场</text>
  <rect x="497" y="225" width="78" height="26" fill="#ffffff" class="box-rect"/>
  <text x="536" y="241" class="module-box">数据服务</text>

  <!-- IoT平台 -->
  <text x="165" y="268" class="layer-label">IoT平台</text>
  <rect x="165" y="273" width="78" height="26" fill="#ffffff" class="box-rect"/>
  <text x="204" y="289" class="module-box">设备管理</text>
  <rect x="248" y="273" width="78" height="26" fill="#ffffff" class="box-rect"/>
  <text x="287" y="289" class="module-box">设备拓扑</text>
  <rect x="331" y="273" width="78" height="26" fill="#ffffff" class="box-rect"/>
  <text x="370" y="289" class="module-box">MQTT接入</text>
  <rect x="414" y="273" width="78" height="26" fill="#ffffff" class="box-rect"/>
  <text x="453" y="289" class="module-box">数据服务</text>

  <!-- 技术组件 -->
  <text x="165" y="316" class="layer-label">技术组件</text>
  <rect x="165" y="321" width="68" height="26" fill="#ffffff" class="box-rect"/>
  <text x="199" y="337" class="module-box">微服务</text>
  <rect x="238" y="321" width="68" height="26" fill="#ffffff" class="box-rect"/>
  <text x="272" y="337" class="module-box">消息队列</text>
  <rect x="311" y="321" width="68" height="26" fill="#ffffff" class="box-rect"/>
  <text x="345" y="337" class="module-box">流计算</text>
  <rect x="384" y="321" width="68" height="26" fill="#ffffff" class="box-rect"/>
  <text x="418" y="337" class="module-box">Hadoop</text>
  <rect x="457" y="321" width="68" height="26" fill="#ffffff" class="box-rect"/>
  <text x="491" y="337" class="module-box">工作流</text>

  <!-- 数字孪生（移到技术组件右侧） -->
  <text x="165" y="364" class="layer-label">数字孪生</text>
  <rect x="165" y="369" width="88" height="26" fill="#ffffff" class="box-rect"/>
  <text x="209" y="385" class="module-box">三维场景编辑</text>
  <rect x="258" y="369" width="88" height="26" fill="#ffffff" class="box-rect"/>
  <text x="302" y="385" class="module-box">数据融合</text>
  <rect x="351" y="369" width="88" height="26" fill="#ffffff" class="box-rect"/>
  <text x="395" y="385" class="module-box">零代码交付</text>

  <!-- 低代码平台 -->
  <text x="620" y="220" class="layer-label">低代码平台</text>
  <rect x="620" y="225" width="83" height="26" fill="#ffffff" class="box-rect"/>
  <text x="661.5" y="241" class="module-box">大屏服务</text>
  <rect x="708" y="225" width="83" height="26" fill="#ffffff" class="box-rect"/>
  <text x="749.5" y="241" class="module-box">报表服务</text>
  <rect x="796" y="225" width="83" height="26" fill="#ffffff" class="box-rect"/>
  <text x="837.5" y="241" class="module-box">流程管理</text>

  <!-- 统一支撑 -->
  <text x="620" y="268" class="layer-label">统一支撑</text>
  <rect x="620" y="273" width="78" height="26" fill="#ffffff" class="box-rect"/>
  <text x="659" y="289" class="module-box">统一安全</text>
  <rect x="703" y="273" width="78" height="26" fill="#ffffff" class="box-rect"/>
  <text x="742" y="289" class="module-box">统一运维</text>
  <rect x="786" y="273" width="78" height="26" fill="#ffffff" class="box-rect"/>
  <text x="825" y="289" class="module-box">统一门户</text>
  <rect x="869" y="273" width="78" height="26" fill="#ffffff" class="box-rect"/>
  <text x="908" y="289" class="module-box">业务中台</text>

  <!-- ====== 计算与网络资源层 ====== -->
  <rect x="15" y="405" width="130" height="155" fill="#F59E0B"/>
  <text x="25" y="475" class="left-label">计算与网络</text>
  <text x="40" y="495" class="left-label">资源层</text>
  
  <rect x="150" y="405" width="1135" height="155" fill="#F3F4F6"/>

  <!-- 计算资源 -->
  <text x="165" y="425" class="layer-label">计算资源</text>
  <rect x="165" y="430" width="113" height="30" fill="#ffffff" class="box-rect"/>
  <text x="221.5" y="449" class="module-box">超融合一体机×3</text>
  <rect x="283" y="430" width="113" height="30" fill="#ffffff" class="box-rect"/>
  <text x="339.5" y="449" class="module-box">应用服务器</text>
  <rect x="401" y="430" width="113" height="30" fill="#ffffff" class="box-rect"/>
  <text x="457.5" y="449" class="module-box">虚拟化平台</text>

  <!-- 网络资源 -->
  <text x="165" y="478" class="layer-label">网络资源</text>
  <rect x="165" y="483" width="123" height="30" fill="#ffffff" class="box-rect"/>
  <text x="226.5" y="502" class="module-box">超融合管理交换机</text>
  <rect x="293" y="483" width="123" height="30" fill="#ffffff" class="box-rect"/>
  <text x="354.5" y="502" class="module-box">超融合存储交换机</text>
  <rect x="421" y="483" width="123" height="30" fill="#ffffff" class="box-rect"/>
  <text x="482.5" y="502" class="module-box">矿山项目局域网</text>

  <!-- 云管理 -->
  <text x="165" y="531" class="layer-label">云管理与运维</text>
  <rect x="165" y="536" width="98" height="26" fill="#ffffff" class="box-rect"/>
  <text x="214" y="552" class="module-box">云管理平台</text>
  <rect x="268" y="536" width="98" height="26" fill="#ffffff" class="box-rect"/>
  <text x="317" y="552" class="module-box">租户管理</text>
  <rect x="371" y="536" width="98" height="26" fill="#ffffff" class="box-rect"/>
  <text x="420" y="552" class="module-box">服务监控</text>
  <rect x="474" y="536" width="98" height="26" fill="#ffffff" class="box-rect"/>
  <text x="523" y="552" class="module-box">日志系统</text>

  <!-- ====== 现场硬件与控制层 ====== -->
  <rect x="15" y="575" width="130" height="190" fill="#DC2626"/>
  <text x="25" y="655" class="left-label">现场硬件与</text>
  <text x="40" y="675" class="left-label">控制层</text>
  
  <rect x="150" y="575" width="1135" height="190" fill="#F3F4F6"/>

  <!-- 控制系统 -->
  <text x="165" y="595" class="layer-label">控制系统</text>
  <rect x="165" y="600" width="83" height="30" fill="#ffffff" class="box-rect"/>
  <text x="206.5" y="619" class="module-box">DCS系统</text>
  <rect x="253" y="600" width="83" height="30" fill="#ffffff" class="box-rect"/>
  <text x="294.5" y="619" class="module-box">PLC控制</text>
  <rect x="341" y="600" width="83" height="30" fill="#ffffff" class="box-rect"/>
  <text x="382.5" y="619" class="module-box">变频器</text>

  <!-- 智能数采 -->
  <text x="165" y="648" class="layer-label">智能数采</text>
  <rect x="165" y="653" width="98" height="30" fill="#ffffff" class="box-rect"/>
  <text x="214" y="672" class="module-box">无线传感器</text>
  <rect x="268" y="653" width="98" height="30" fill="#ffffff" class="box-rect"/>
  <text x="317" y="672" class="module-box">电流传感器</text>
  <rect x="371" y="653" width="98" height="30" fill="#ffffff" class="box-rect"/>
  <text x="420" y="672" class="module-box">采集终端</text>
  <rect x="474" y="653" width="98" height="30" fill="#ffffff" class="box-rect"/>
  <text x="523" y="672" class="module-box">数采工控机</text>

  <!-- 其他系统 -->
  <text x="165" y="701" class="layer-label">其他系统</text>
  <rect x="165" y="706" width="93" height="30" fill="#ffffff" class="box-rect"/>
  <text x="211.5" y="725" class="module-box">视频监控</text>
  <rect x="263" y="706" width="93" height="30" fill="#ffffff" class="box-rect"/>
  <text x="309.5" y="725" class="module-box">业财系统</text>
  <rect x="361" y="706" width="93" height="30" fill="#ffffff" class="box-rect"/>
  <text x="407.5" y="725" class="module-box">尾矿库监测</text>
  <rect x="459" y="706" width="93" height="30" fill="#ffffff" class="box-rect"/>
  <text x="505.5" y="725" class="module-box">危化品监测</text>

  <!-- 数据流向箭头 -->
  <defs>
    <marker id="arrow" markerWidth="10" markerHeight="10" refX="6" refY="5" orient="auto">
      <path d="M0,0 L10,5 L0,10 z" fill="#666666"/>
    </marker>
  </defs>

  <line x1="1150" y1="565" x2="1150" y2="555" stroke="#666666" stroke-width="2.5" marker-end="url(#arrow)"/>
  <line x1="1150" y1="395" x2="1150" y2="385" stroke="#666666" stroke-width="2.5" marker-end="url(#arrow)"/>
  <line x1="1150" y1="190" x2="1150" y2="180" stroke="#666666" stroke-width="2.5" marker-end="url(#arrow)"/>
  
  <text x="1165" y="450" style="font: bold 12px 'Microsoft YaHei', sans-serif; fill: #666666;">数据自下</text>
  <text x="1165" y="465" style="font: bold 12px 'Microsoft YaHei', sans-serif; fill: #666666;">而上汇聚</text>
</svg>
